<svg width="62" height="62" viewBox="0 0 62 62" fill="none" xmlns="http://www.w3.org/2000/svg">
<path d="M31.4906 7.0008C29.6552 7.00134 27.8952 7.72956 26.5974 9.0254C25.2996 10.3212 24.5703 12.0786 24.5697 13.9112V17.0505H21.4257C20.5162 17.0497 19.6154 17.228 18.775 17.5752C17.9346 17.9224 17.171 18.4317 16.5278 19.0739C15.8847 19.716 15.3747 20.4786 15.0271 21.3177C14.6794 22.1569 14.5008 23.0563 14.5016 23.9645V30.8724H24.5681V37.1509H21.4241C19.5882 37.1507 17.8274 37.8786 16.5289 39.1745C15.2305 40.4704 14.5006 42.2281 14.5 44.0612V56H21.4273C22.336 55.9997 23.2357 55.8206 24.075 55.4727C24.9143 55.1252 25.6768 54.6158 26.3189 53.974C26.9611 53.3321 27.4703 52.5701 27.8175 51.7316C28.1647 50.893 28.3431 49.9947 28.3426 49.0875H28.3514V44.5264L28.3329 44.5288V15.4708L28.3482 15.4744V13.9124C28.3498 13.0795 28.6813 12.2811 29.2703 11.6914C29.8593 11.1016 30.6581 10.7685 31.4922 10.7647H43.5157V13.9124C43.5131 14.7449 43.1805 15.5425 42.5906 16.1308C42.0006 16.7191 41.2014 17.0502 40.3676 17.0517H29.7711V20.8196H40.366C42.2014 20.8197 43.9616 20.0918 45.2595 18.7961C46.5574 17.5004 47.2867 15.743 47.2869 13.9104V7L31.4906 7.0008ZM24.5697 27.1041H18.2793V23.9648C18.2807 23.131 18.6125 22.3316 19.2024 21.7413C19.7923 21.1511 20.5922 20.8179 21.4273 20.8147H24.5714L24.5697 27.1041ZM24.5697 49.0909C24.5684 49.9233 24.2368 50.7215 23.6476 51.3102C23.0583 51.8993 22.2594 52.2313 21.4257 52.2333H18.2777V44.0633C18.2784 43.2302 18.6105 42.4317 19.2008 41.843C19.7911 41.2542 20.5914 40.9238 21.4257 40.9241H24.5697V49.0909ZM29.7711 30.872H37.7117V34.0145C37.7087 34.8468 37.3759 35.6441 36.786 36.2323C36.1962 36.8205 35.3973 37.1517 34.5637 37.1537H29.7711V40.9241H34.5653C35.4743 40.9246 36.3745 40.7461 37.2144 40.399C38.0542 40.0519 38.8174 39.5429 39.4602 38.9011C40.1029 38.2593 40.6127 37.4973 40.9603 36.6587C41.308 35.8201 41.4867 34.9213 41.4862 34.0137H41.4894V27.1033H29.7711V30.872Z" fill="#264DB1"/>
</svg>
